Sprung from prison on a technicality, Carlito Brigante (Al Pacino) vows to use his unexpected second chance to his best advantage. But every time he tries to get out of the rackets, the bad guys pull him back in. Director Brian De Palma stamps his signature electric visual style onto this searing drama about the challenges of trying to go straight in a crooked world. Sean Penn, Viggo Mortensen and John Leguizamo co-star.


General
Complete name : C:\\Movies\\Carlitos Way 1993 PartsGuy DvdRip x264 LKRG.m4v
Format : MPEG-4
Format profile : Base Media / Version 2
Codec ID : mp42
File size : 1.02 GiB
Duration : 2h 24mn
Overall bit rate : 1 011 Kbps

Video
ID : 1
Format : AVC
Format/Info : Advanced Video Codec
Format profile : Main@L3.0
Format settings, CABAC : Yes
Format settings, ReFrames : 2 frames
Codec ID : avc1
Codec ID/Info : Advanced Video Coding
Duration : 2h 24mn
Bit rate mode : Variable
Bit rate : 846 Kbps
Width : 720 pixels
Height : 362 pixels
Display aspect ratio : 2.35:1
Frame rate mode : Variable
Frame rate : 23.976 fps
Minimum frame rate : 14.985 fps
Maximum frame rate : 29.970 fps
Color space : YUV
Chroma subsampling : 4:2:0
Bit depth : 8 bits
Scan type : Progressive
Bits/(Pixel*Frame) : 0.135
Stream size : 872 MiB (84%)
Writing library : x264 core 79

Audio
ID : 2
Format : AAC
Format/Info : Advanced Audio Codec
Format version : Version 4
Format profile : LC
Format settings, SBR : No
Codec ID : 40
Duration : 2h 24mn
Bit rate mode : Variable
Bit rate : 160 Kbps
Maximum bit rate : 210 Kbps
Channel(s) : 2 channels
Channel positions : Front: L R
Sampling rate : 48.0 KHz
Stream size : 165 MiB (16%)
Language : English